<?xml version="1.0" encoding="iso-8859-1"?>
<!-- Generator: Adobe Illustrator 19.0.0, SVG Export Plug-In . SVG Version: 6.00 Build 0)  -->
<svg version="1.1" id="Layer_1" xmlns="http://www.w3.org/2000/svg" xmlns:xlink="http://www.w3.org/1999/xlink" x="0px" y="0px"
	 viewBox="0 0 512 512" style="enable-background:new 0 0 512 512;" xml:space="preserve">
<g>
	<g>
		<path d="M500.364,244.364h-11.636v-58.182c0-6.982-4.655-11.636-11.636-11.636h-11.636v-58.182
			c0-6.982-4.655-11.636-11.636-11.636h-11.636V46.545c0-6.982-4.655-11.636-11.636-11.636H104.727
			c-6.982,0-11.636,4.655-11.636,11.636v58.182c0,6.982,4.655,11.636,11.636,11.636s11.636-4.655,11.636-11.636V58.182h302.545
			v46.545H232.727c-6.982,0-11.636,4.655-11.636,11.636S225.745,128,232.727,128h209.455v46.545H337.455
			c-6.982,0-11.636,4.655-11.636,11.636s4.655,11.636,11.636,11.636h104.727h11.636h11.636v46.545h-93.091
			c-6.982,0-11.636,4.655-11.636,11.636s4.655,11.636,11.636,11.636h116.364v46.545H384c-6.982,0-11.636,4.655-11.636,11.636
			s4.655,11.636,11.636,11.636h34.909V384h-58.182c-6.982,0-11.636,4.655-11.636,11.636c0,6.982,4.655,11.636,11.636,11.636h104.727
			v46.545H302.545c-6.982,0-11.636,4.655-11.636,11.636c0,6.982,4.655,11.636,11.636,11.636h174.545
			c6.982,0,11.636-4.655,11.636-11.636v-69.818c0-6.982-4.655-11.636-11.636-11.636h-34.909v-46.545h58.182
			c6.982,0,11.636-4.655,11.636-11.636V256C512,249.018,507.345,244.364,500.364,244.364z"/>
	</g>
</g>
<g>
	<g>
		<path d="M174.545,128C77.964,128,0,205.964,0,302.545s77.964,174.545,174.545,174.545s174.545-77.964,174.545-174.545
			S271.127,128,174.545,128z M174.545,453.818c-83.782,0-151.273-67.491-151.273-151.273s67.491-151.273,151.273-151.273
			s151.273,67.491,151.273,151.273S258.327,453.818,174.545,453.818z"/>
	</g>
</g>
<g>
	<g>
		<path d="M174.545,174.545c-70.982,0-128,57.018-128,128s57.018,128,128,128s128-57.018,128-128S245.527,174.545,174.545,174.545z
			 M174.545,407.273c-58.182,0-104.727-46.545-104.727-104.727s46.545-104.727,104.727-104.727s104.727,46.545,104.727,104.727
			S232.727,407.273,174.545,407.273z"/>
	</g>
</g>
<g>
	<g>
		<path d="M197.818,325.818h-11.636v-58.182c0-6.982-4.655-11.636-11.636-11.636h-23.273c-6.982,0-11.636,4.655-11.636,11.636
			s4.655,11.636,11.636,11.636h11.636v46.545h-11.636c-6.982,0-11.636,4.655-11.636,11.636c0,6.982,4.655,11.636,11.636,11.636
			h46.545c6.982,0,11.636-4.655,11.636-11.636C209.455,330.473,204.8,325.818,197.818,325.818z"/>
	</g>
</g>
<g>
</g>
<g>
</g>
<g>
</g>
<g>
</g>
<g>
</g>
<g>
</g>
<g>
</g>
<g>
</g>
<g>
</g>
<g>
</g>
<g>
</g>
<g>
</g>
<g>
</g>
<g>
</g>
<g>
</g>
</svg>
