<?xml version="1.0" encoding="UTF-8"?>
<svg width="752pt" height="752pt" version="1.1" viewBox="0 0 752 752" xmlns="http://www.w3.org/2000/svg">
 <g>
  <path d="m302 479.6c-32.691 0-59.199 26.504-59.199 59.199 0 32.691 26.504 59.199 59.199 59.199 32.691 0 59.199-26.504 59.199-59.199s-26.508-59.199-59.199-59.199zm0 51.797c12.238 0 22.199 9.9609 22.199 22.199 0 9.6328-6.207 17.773-14.801 20.836v8.7617h-14.801v-8.7617c-8.5898-3.0625-14.801-11.203-14.801-20.836h14.801c0 4.0859 3.3242 7.3984 7.3984 7.3984 4.0781 0 7.3984-3.3164 7.3984-7.3984 0-4.0859-3.3242-7.3984-7.3984-7.3984-12.238 0-22.199-9.9609-22.199-22.199 0-9.6328 6.207-17.773 14.801-20.836l0.003907-8.7617h14.801v8.7617c8.5898 3.0625 14.801 11.203 14.801 20.836h-14.801c0-4.0859-3.3242-7.3984-7.3984-7.3984-4.0781 0-7.3984 3.3164-7.3984 7.3984-0.003906 4.0859 3.3164 7.3984 7.3945 7.3984z"/>
  <path d="m235.41 464.8c0 16.348-13.25 29.602-29.598 29.602s-29.598-13.254-29.598-29.602 13.25-29.598 29.598-29.598 29.598 13.25 29.598 29.598"/>
  <path d="m242.31 509.45c-9.3906-9.3242-22.207-15.051-36.504-15.051-28.637 0-51.797 23.16-51.797 51.797v37h98.496c-10.598-11.797-17.102-27.336-17.102-44.402 0-10.535 2.5234-20.473 6.9062-29.344z"/>
  <path d="m559.1 433.3-34.652 28.883-17.418-17.418c-2.5547-2.5547-6.5859-2.8945-9.5312-0.78516l-103.6 73.996 8.5977 12.039 98.496-70.355 17.766 17.766c2.707 2.7148 7.0391 2.9141 9.9688 0.45703l40.883-34.066 13.578 13.578 7.3984-44.398-44.398 7.3984z"/>
  <path d="m479.6 516.6h29.598v81.398h-29.598z"/>
  <path d="m420.4 546.2h29.598v51.797h-29.598z"/>
  <path d="m538.79 501.8h29.598v96.195h-29.598z"/>
  <path d="m575.79 154.01h-399.58c-8.1797 0-14.801 6.6211-14.801 14.797v192.39c0 8.1758 6.6211 14.801 14.801 14.801h103.6l-14.801 44.398 66.598-44.398h244.19c8.1758 0 14.801-6.6211 14.801-14.801l-0.003906-192.39c0-8.1758-6.625-14.797-14.801-14.797zm-325.59 170.19c-32.691 0-59.199-26.504-59.199-59.199 0-32.691 26.504-59.199 59.199-59.199 32.691 0 59.199 26.504 59.199 59.199-0.003906 32.695-26.508 59.199-59.199 59.199zm140.59-22.199v-22.199h-51.797v-29.598h51.797v-22.199l37 37zm170.19 37c0 8.1758-23.191 14.801-51.797 14.801-28.605 0-51.797-6.6211-51.797-14.801v-18.484c13.75 5.6172 37.148 7.3867 51.797 7.3867 14.652 0 38.051-1.7695 51.797-7.3867zm0-26.461c-7.2148 3.5664-24.871 7.9609-51.797 7.9609-26.926 0-44.582-4.3945-51.797-7.9609v-21.621c13.75 5.6172 37.148 7.3867 51.797 7.3867 14.652 0 38.051-1.7695 51.797-7.3867zm0-29.602c-7.2148 3.5664-24.871 7.9609-51.797 7.9609-26.926 0-44.582-4.3945-51.797-7.9609v-21.621c13.75 5.6172 37.148 7.3867 51.797 7.3867 14.652 0 38.051-1.7695 51.797-7.3867zm0-29.598c-7.2148 3.5664-24.871 7.9609-51.797 7.9609-26.926 0-44.582-4.3945-51.797-7.9609v-21.621c13.75 5.6172 37.148 7.3867 51.797 7.3867 14.652 0 38.051-1.7695 51.797-7.3867zm0-29.598c-7.2148 3.5664-24.871 7.9609-51.797 7.9609-26.926 0-44.582-4.3945-51.797-7.9609v-21.621c13.75 5.6133 37.145 7.3828 51.797 7.3828 14.652 0 38.051-1.7695 51.797-7.3867zm0-29.602c-7.2148 3.5703-24.867 7.9648-51.797 7.9648-26.926 0-44.582-4.3945-51.797-7.9609v-3.1406c0-8.1758 23.191-14.801 51.797-14.801 28.605 0 51.797 6.6211 51.797 14.801z"/>
  <path d="m250.21 242.81c4.0781 0 7.3984 3.3164 7.3984 7.3984h14.801c0-9.6328-6.207-17.773-14.801-20.836v-8.7617h-14.801v8.7617c-8.5898 3.0625-14.801 11.203-14.801 20.836 0 12.238 9.9609 22.199 22.199 22.199 4.0781 0 7.3984 3.3164 7.3984 7.3984 0 4.0859-3.3242 7.3984-7.3984 7.3984-4.0781 0-7.3984-3.3164-7.3984-7.3984h-14.801c0 9.6328 6.207 17.773 14.801 20.836l0.003906 8.7617h14.801v-8.7617c8.5898-3.0625 14.801-11.203 14.801-20.836 0-12.238-9.9609-22.199-22.199-22.199-4.0781 0-7.3984-3.3164-7.3984-7.3984-0.003906-4.0859 3.3164-7.3984 7.3945-7.3984z"/>
 </g>
</svg>
